HIERARCHY
ROOT Hips
{
    OFFSET   0.000000   0.000000   0.000000
    CHANNELS 6 Xposition Yposition Zposition Zrotation Xrotation Yrotation
    JOINT Chest
    {
        OFFSET   0.000000   8.007230   0.000000
        CHANNELS 3 Zrotation Xrotation Yrotation
        JOINT Chest2
        {
            OFFSET   0.000000  22.077100   0.000000
            CHANNELS 3 Zrotation Xrotation Yrotation
            JOINT Neck
            {
                OFFSET   0.000000  23.254800  -0.000021
                CHANNELS 3 Zrotation Xrotation Yrotation
                JOINT Head
                {
                    OFFSET   0.000000  14.370000   1.956610
                    CHANNELS 3 Zrotation Xrotation Yrotation
                    End Site
                    {
                        OFFSET   0.000000  19.566000   0.000000
                    }
                }
            }
            JOINT LeftCollar
            {
                OFFSET   3.911900  19.017000  -0.467063
                CHANNELS 3 Zrotation Xrotation Yrotation
                JOINT LeftShoulder
                {
                    OFFSET  10.383700   0.000000   0.000000
                    CHANNELS 3 Zrotation Xrotation Yrotation
                    JOINT LeftElbow
                    {
                        OFFSET  26.662100   0.001529   0.000325
                        CHANNELS 3 Zrotation Xrotation Yrotation
                        JOINT LeftWrist
                        {
                            OFFSET  28.869000  -0.000011  -0.000096
                            CHANNELS 3 Zrotation Xrotation Yrotation
                            JOINT LeftFinger0
                            {
                                OFFSET   2.044650  -2.323460   3.252850
                                CHANNELS 3 Zrotation Xrotation Yrotation
                                JOINT LeftFinger01
                                {
                                    OFFSET   3.088130   0.000000   0.000000
                                    CHANNELS 3 Zrotation Xrotation Yrotation
                                    JOINT LeftFinger02
                                    {
                                        OFFSET   2.639460   0.000000   0.000000
                                        CHANNELS 3 Zrotation Xrotation Yrotation
                                        End Site
                                        {
                                            OFFSET   2.582190   0.000000   0.000000
                                        }
                                    }
                                }
                            }
                            JOINT LeftFinger1
                            {
                                OFFSET   8.364480   0.000000   3.252850
                                CHANNELS 3 Zrotation Xrotation Yrotation
                                JOINT LeftFinger11
                                {
                                    OFFSET   4.646930   0.000000   0.000000
                                    CHANNELS 3 Zrotation Xrotation Yrotation
                                    JOINT LeftFinger12
                                    {
                                        OFFSET   2.323460   0.000000   0.000000
                                        CHANNELS 3 Zrotation Xrotation Yrotation
                                        End Site
                                        {
                                            OFFSET   2.273050   0.000000   0.000000
                                        }
                                    }
                                }
                            }
                            JOINT LeftFinger2
                            {
                                OFFSET   8.364480   0.000016   1.078090
                                CHANNELS 3 Zrotation Xrotation Yrotation
                                JOINT LeftFinger21
                                {
                                    OFFSET   5.111620   0.000000   0.000000
                                    CHANNELS 3 Zrotation Xrotation Yrotation
                                    JOINT LeftFinger22
                                    {
                                        OFFSET   2.788160   0.000017   0.000000
                                        CHANNELS 3 Zrotation Xrotation Yrotation
                                        End Site
                                        {
                                            OFFSET   2.727660   0.000000   0.000000
                                        }
                                    }
                                }
                            }
                            JOINT LeftFinger3
                            {
                                OFFSET   7.899780   0.000015  -1.078090
                                CHANNELS 3 Zrotation Xrotation Yrotation
                                JOINT LeftFinger31
                                {
                                    OFFSET   4.646920   0.000000   0.000000
                                    CHANNELS 3 Zrotation Xrotation Yrotation
                                    JOINT LeftFinger32
                                    {
                                        OFFSET   2.323470   0.000000   0.000000
                                        CHANNELS 3 Zrotation Xrotation Yrotation
                                        End Site
                                        {
                                            OFFSET   2.273050   0.000000   0.000000
                                        }
                                    }
                                }
                            }
                            JOINT LeftFinger4
                            {
                                OFFSET   7.435090   0.000000  -3.252850
                                CHANNELS 3 Zrotation Xrotation Yrotation
                                JOINT LeftFinger41
                                {
                                    OFFSET   3.717550   0.000000   0.000000
                                    CHANNELS 3 Zrotation Xrotation Yrotation
                                    JOINT LeftFinger42
                                    {
                                        OFFSET   1.858760   0.000000   0.000000
                                        CHANNELS 3 Zrotation Xrotation Yrotation
                                        End Site
                                        {
                                            OFFSET   1.818440   0.000000   0.000000
                                        }
                                    }
                                }
                            }
                        }
                    }
                }
            }
            JOINT RightCollar
            {
                OFFSET  -3.911900  19.017000  -0.467062
                CHANNELS 3 Zrotation Xrotation Yrotation
                JOINT RightShoulder
                {
                    OFFSET -10.383700   0.000015   0.000000
                    CHANNELS 3 Zrotation Xrotation Yrotation
                    JOINT RightElbow
                    {
                        OFFSET -26.662100   0.001341   0.000385
                        CHANNELS 3 Zrotation Xrotation Yrotation
                        JOINT RightWrist
                        {
                            OFFSET -28.869000   0.000025  -0.000080
                            CHANNELS 3 Zrotation Xrotation Yrotation
                            JOINT RightFinger0
                            {
                                OFFSET  -2.044650  -2.323490   3.252850
                                CHANNELS 3 Zrotation Xrotation Yrotation
                                JOINT RightFinger01
                                {
                                    OFFSET  -3.088130   0.000000   0.000000
                                    CHANNELS 3 Zrotation Xrotation Yrotation
                                    JOINT RightFinger02
                                    {
                                        OFFSET  -2.639460   0.000000   0.000000
                                        CHANNELS 3 Zrotation Xrotation Yrotation
                                        End Site
                                        {
                                            OFFSET  -2.582190   0.000000   0.000000
                                        }
                                    }
                                }
                            }
                            JOINT RightFinger1
                            {
                                OFFSET  -8.364480   0.000000   3.252850
                                CHANNELS 3 Zrotation Xrotation Yrotation
                                JOINT RightFinger11
                                {
                                    OFFSET  -4.646930   0.000000   0.000000
                                    CHANNELS 3 Zrotation Xrotation Yrotation
                                    JOINT RightFinger12
                                    {
                                        OFFSET  -2.323470   0.000000   0.000000
                                        CHANNELS 3 Zrotation Xrotation Yrotation
                                        End Site
                                        {
                                            OFFSET  -2.273050   0.000000   0.000000
                                        }
                                    }
                                }
                            }
                            JOINT RightFinger2
                            {
                                OFFSET  -8.364480   0.000000   1.078090
                                CHANNELS 3 Zrotation Xrotation Yrotation
                                JOINT RightFinger21
                                {
                                    OFFSET  -5.111610   0.000000   0.000000
                                    CHANNELS 3 Zrotation Xrotation Yrotation
                                    JOINT RightFinger22
                                    {
                                        OFFSET  -2.788160   0.000000   0.000000
                                        CHANNELS 3 Zrotation Xrotation Yrotation
                                        End Site
                                        {
                                            OFFSET  -2.727660   0.000000   0.000000
                                        }
                                    }
                                }
                            }
                            JOINT RightFinger3
                            {
                                OFFSET  -7.899780   0.000000  -1.078090
                                CHANNELS 3 Zrotation Xrotation Yrotation
                                JOINT RightFinger31
                                {
                                    OFFSET  -4.646920   0.000000   0.000000
                                    CHANNELS 3 Zrotation Xrotation Yrotation
                                    JOINT RightFinger32
                                    {
                                        OFFSET  -2.323470   0.000000   0.000000
                                        CHANNELS 3 Zrotation Xrotation Yrotation
                                        End Site
                                        {
                                            OFFSET  -2.273050   0.000000   0.000000
                                        }
                                    }
                                }
                            }
                            JOINT RightFinger4
                            {
                                OFFSET  -7.435090   0.000000  -3.252850
                                CHANNELS 3 Zrotation Xrotation Yrotation
                                JOINT RightFinger41
                                {
                                    OFFSET  -3.717550   0.000000   0.000000
                                    CHANNELS 3 Zrotation Xrotation Yrotation
                                    JOINT RightFinger42
                                    {
                                        OFFSET  -1.858770   0.000000   0.000000
                                        CHANNELS 3 Zrotation Xrotation Yrotation
                                        End Site
                                        {
                                            OFFSET  -1.818440   0.000000   0.000000
                                        }
                                    }
                                }
                            }
                        }
                    }
                }
            }
        }
    }
    JOINT LeftHip
    {
        OFFSET   9.783010   0.000000   0.000000
        CHANNELS 3 Zrotation Xrotation Yrotation
        JOINT LeftKnee
        {
            OFFSET   0.000070 -41.789100   0.000028
            CHANNELS 3 Zrotation Xrotation Yrotation
            JOINT LeftAnkle
            {
                OFFSET   0.000087 -41.133200  -0.000100
                CHANNELS 3 Zrotation Xrotation Yrotation
                JOINT LeftToe
                {
                    OFFSET   0.000000  -6.358960  14.674500
                    CHANNELS 3 Zrotation Xrotation Yrotation
                    End Site
                    {
                        OFFSET   0.000000   0.000000   3.913200
                    }
                }
            }
        }
    }
    JOINT RightHip
    {
        OFFSET  -9.783020   0.000000   0.000000
        CHANNELS 3 Zrotation Xrotation Yrotation
        JOINT RightKnee
        {
            OFFSET   0.000044 -41.789100  -0.000870
            CHANNELS 3 Zrotation Xrotation Yrotation
            JOINT RightAnkle
            {
                OFFSET  -0.000090 -41.133200  -0.000245
                CHANNELS 3 Zrotation Xrotation Yrotation
                JOINT RightToe
                {
                    OFFSET   0.000000  -6.358960  14.674500
                    CHANNELS 3 Zrotation Xrotation Yrotation
                    End Site
                    {
                        OFFSET   0.000000   0.000000   3.913200
                    }
                }
            }
        }
    }
}
MOTION
Frames: 5
Frame Time:   0.016667
  0.365419  89.606200   0.704136  -3.949220  -9.009240  -7.053050   0.833289   5.320540  -0.605553   1.734580  10.631300  -1.297620   0.333109  -1.560860   0.007244   0.548467  -3.165020  23.024700  -0.493825   0.745528   0.229338 -74.218000  21.782100  -3.048450  -3.086650  -5.123480 -18.200900  13.566400 -10.375000   6.262020  41.916200  36.308900 -64.301700 -31.145800   0.002632   0.003002 -10.572900   0.000827   0.001869 -23.695900   3.075690  -6.970020 -19.540900   0.003829  -0.007482 -13.678600   0.003061  -0.009028 -25.717100  -0.412821   0.857092 -25.720300  -0.001535  -0.010687 -17.129700  -0.000977   0.003779 -24.996700  -0.402014   0.862213 -24.999700   0.000659  -0.007984 -16.649800   0.010019  -0.004496 -25.750400  -0.413306   0.856853 -38.630200  -0.003451  -0.009709 -25.727700  -0.002355  -0.000691   3.161110   1.076240  -0.393998  38.944700  -4.302990  59.833200 -20.127800 -39.369000 104.949000  42.833400  27.513800 -16.646800 -29.525600  30.274500  67.322300  48.476500   0.001662  -0.001455  23.312500  -0.003851   0.006986  88.996000   4.996210   0.089923  80.441700  -0.000364  -0.004817  60.331300   0.000991  -0.003615  89.000000   0.005136   0.001814  90.760900  -0.003925  -0.002882  68.070700  -0.005305   0.001214  88.993600  -4.995360  -0.082435  93.158900  -0.003854  -0.007056  69.869100  -0.004050  -0.002651  88.983600 -10.001700  -0.181700 110.005000  -0.000596   0.000356  80.000000   0.003511   0.005929   1.909410  12.427200   4.676050   1.256720   0.361728  12.934800  -2.127760  -4.191320   3.354690  -0.000000   0.000000   0.000000   3.089310   9.197380  -5.078460  -0.597576   2.740760  -4.206730   0.054040  -3.551040   3.871470   0.000000   0.000000   0.000000
  0.375057  89.604600   0.684027  -3.974980  -9.026300  -7.086660   0.852821   5.324180  -0.604496   1.773860  10.638200  -1.297320   0.385773  -1.605440   0.007457   0.635571  -3.254950  22.712800  -0.526690   0.712434   0.280532 -74.223600  21.893900  -3.071720  -3.112560  -5.182270 -18.127700  13.537500 -10.331100   6.240090  41.919700  36.302000 -64.286200 -31.126400   0.002651   0.003057 -10.563200   0.000845   0.001875 -23.668900   3.077210  -6.983060 -19.518700   0.003851  -0.007578 -13.663500   0.003120  -0.009150 -25.690800  -0.394906   0.820912 -25.693600  -0.001529  -0.010793 -17.111900  -0.000992   0.003837 -24.967200  -0.384585   0.825804 -24.969700   0.000700  -0.008090 -16.629500   0.010091  -0.004512 -25.733300  -0.395529   0.820612 -38.604300  -0.003450  -0.009900 -25.710500  -0.002360  -0.000709   3.097050   0.994703  -0.272915  37.939900  -3.661510  60.362000 -20.078800 -38.701800 104.071000  42.862600  27.238200 -16.376100 -29.324500  30.102000  67.044400  48.579200   0.001759  -0.001683  23.473600  -0.003936   0.006982  88.996000   4.996230   0.089965  80.175700  -0.000326  -0.004792  60.131700   0.000876  -0.003658  88.993900   0.005241   0.001899  90.432500  -0.003364  -0.003030  67.824500  -0.005412   0.001289  88.993600  -4.995320  -0.082356  92.854100  -0.003827  -0.007105  69.640500  -0.004158  -0.002695  88.983600 -10.001600  -0.181776 110.005000  -0.000577   0.000357  80.000000   0.003630   0.005990   1.914550  12.457800   4.673780   1.268350   0.334288  12.922100  -2.094270  -4.192330   3.402290   0.000000   0.000000   0.000000   3.112730   9.191560  -5.073440  -0.609636   2.759080  -4.206890   0.062067  -3.535110   3.895750  -0.000000   0.000000   0.000000
  0.385309  89.600500   0.665311  -3.996040  -9.042440  -7.098870   0.871330   5.324700  -0.603436   1.811010  10.639200  -1.297000   0.436170  -1.648060   0.007659   0.718467  -3.341070  22.397000  -0.558414   0.697117   0.335444 -74.226400  22.013200  -3.097730  -3.133830  -5.238090 -18.064900  13.522200 -10.305900   6.223120  41.932800  36.284600 -64.254800 -31.102300   0.002669   0.003108 -10.551100   0.000863   0.001883 -23.631800   3.078720  -6.997890 -19.489100   0.003875  -0.007675 -13.642400   0.003178  -0.009271 -25.654300  -0.373622   0.777802 -25.656800  -0.001524  -0.010897 -17.087400  -0.001007   0.003895 -24.942300  -0.363928   0.782398 -24.944700   0.000741  -0.008197 -16.613200   0.010157  -0.004526 -25.711100  -0.374388   0.777438 -38.570500  -0.003448  -0.010086 -25.688000  -0.002365  -0.000728   3.032740   0.933153  -0.155496  37.034200  -3.100090  60.911500 -20.030400 -38.020700 103.269000  42.719100  27.011200 -16.131400 -29.180400  30.026900  66.872800  48.643000   0.001859  -0.002031  23.594500  -0.004020   0.006980  88.996000   4.996260   0.090005  79.888800  -0.000286  -0.004769  59.916500   0.000762  -0.003698  88.988300   0.005345   0.001983  90.078200  -0.002558  -0.003179  67.558700  -0.005520   0.001336  88.993500  -4.995280  -0.082279  92.512800  -0.003797  -0.007159  69.384600  -0.004264  -0.002743  88.983600 -10.001600  -0.181847 110.005000  -0.000563   0.000358  80.000000   0.003751   0.006048   1.918620  12.486800   4.669020   1.278070   0.306840  12.913500  -2.064640  -4.193450   3.424300  -0.000000   0.000000   0.000000   3.136510   9.180410  -5.071210  -0.625367   2.783240  -4.207330   0.070313  -3.522920   3.904860   0.000000   0.000000   0.000000
  0.395472  89.594200   0.649943  -4.014340  -9.059550  -7.096550   0.889016   5.321390  -0.600101   1.846420  10.632500  -1.292820   0.463382  -1.674980   0.007853   0.763259  -3.395670  22.159200  -0.588647   0.695537   0.395996 -74.235500  22.137800  -3.128330  -3.132270  -5.265110 -18.006600  13.532500 -10.309000   6.224990  41.921600  36.241200 -64.193500 -31.078600   0.002676   0.003134 -10.539300   0.000895   0.001906 -23.604400   3.085570  -7.022420 -19.467200   0.003905  -0.007769 -13.627100   0.003233  -0.009393 -25.641000  -0.349787   0.728669 -25.643200  -0.001522  -0.010999 -17.078300  -0.001021   0.003951 -24.938200  -0.340782   0.732938 -24.940500   0.000784  -0.008305 -16.610400   0.010220  -0.004534 -25.697100  -0.350508   0.728325 -38.549000  -0.003444  -0.010267 -25.673600  -0.002368  -0.000745   2.962880   0.892167  -0.051123  36.324700  -2.638050  61.413900 -20.035300 -37.410200 102.636000  42.521700  26.774600 -15.857700 -29.046000  29.945600  66.714000  48.673900   0.001972  -0.002281  23.668700  -0.004080   0.006979  88.996000   4.996280   0.090034  79.662600  -0.000235  -0.004752  59.746900   0.000659  -0.003739  89.060000   0.005437   0.002063  89.791500  -0.002219  -0.003313  67.343600  -0.005639   0.001012  88.993500  -4.995230  -0.082204  92.243600  -0.003759  -0.007219  69.182800  -0.004372  -0.002793  88.983600 -10.001600  -0.181920 110.005000  -0.000548   0.000341  80.000000   0.003891   0.006102   1.924680  12.499200   4.662550   1.284420   0.306865  12.911100  -2.039720  -4.199570   3.423580  -0.000000   0.000000   0.000000   3.162320   9.165220  -5.065930  -0.646006   2.812900  -4.207760   0.077432  -3.512630   3.891650  -0.000000   0.000000   0.000000
  0.405518  89.586300   0.636778  -4.028600  -9.076560  -7.078300   0.903882   5.315400  -0.591745   1.875280  10.620400  -1.276330   0.484947  -1.694410   0.008040   0.798858  -3.435170  21.959100  -0.615930   0.694510   0.452321 -74.246100  22.256300  -3.164850  -3.121360  -5.289950 -17.962700  13.558000 -10.320700   6.228820  41.902100  36.184300 -64.124600 -31.054200   0.002683   0.003157 -10.527100   0.000928   0.001922 -23.588700   3.096810  -7.052900 -19.456000   0.003936  -0.007866 -13.619200   0.003287  -0.009514 -25.637800  -0.325993   0.679210 -25.639700  -0.001521  -0.011096 -17.076000  -0.001034   0.004006 -24.938100  -0.317677   0.683151 -24.939900   0.000829  -0.008413 -16.610000   0.010278  -0.004541 -25.690800  -0.326624   0.678905 -38.538900  -0.003440  -0.010441 -25.666900  -0.002372  -0.000765   2.898250   0.859315   0.040196  35.771900  -2.275340  61.858900 -20.067200 -36.952400 102.136000  42.307700  26.520200 -15.553700 -28.967500  29.934400  66.615900  48.692100   0.002086  -0.002411  23.728800  -0.004135   0.006979  88.996000   4.996310   0.090061  79.445500  -0.000172  -0.004738  59.584100   0.000549  -0.003778  89.131600   0.005530   0.002140  89.511000  -0.001979  -0.003447  67.133200  -0.005759   0.000494  88.993500  -4.995180  -0.082128  91.978800  -0.003716  -0.007277  68.984200  -0.004481  -0.002843  88.983600 -10.001500  -0.181994 110.005000  -0.000531   0.000318  80.000000   0.004030   0.006157   1.931670  12.504400   4.657740   1.288380   0.307019  12.907700  -2.017960  -4.206820   3.418340   0.000000   0.000000  -0.000000   3.188130   9.155350  -5.058750  -0.668062   2.841060  -4.209110   0.083118  -3.507820   3.862810  -0.000000   0.000000   0.000000
